<svg xmlns="http://www.w3.org/2000/svg" viewBox="0 0 64 64">
  <!-- Forma amorfa e fluida base -->
  <path d="M32 7 C16 7 7 16 7 30 C7 37 10 44 16 49 C21 53 26 57 32 57 C42 57 49 52 54 44 C59 36 59 27 55 20 C51 13 44 7 32 7 Z" fill="#FF3628"/>
  
  <!-- Textura de carimbo -->
  <defs>
    <pattern id="stampTexture" patternUnits="userSpaceOnUse" width="8" height="8" patternTransform="rotate(45)">
      <rect width="8" height="8" fill="#FF3628"/>
      <path d="M0 0L8 8M8 0L0 8" stroke="#E52D1E" stroke-width="0.5" opacity="0.4"/>
    </pattern>
  </defs>
  
  <!-- Sobreposição com textura de carimbo -->
  <path d="M32 7 C16 7 7 16 7 30 C7 37 10 44 16 49 C21 53 26 57 32 57 C42 57 49 52 54 44 C59 36 59 27 55 20 C51 13 44 7 32 7 Z" fill="url(#stampTexture)" opacity="0.7"/>
  
  <!-- Bordas irregulares de carimbo -->
  <g opacity="0.2">
    <circle cx="10" cy="30" r="1.5" fill="white" />
    <circle cx="54" cy="25" r="1.2" fill="white" />
    <circle cx="32" cy="8" r="1.3" fill="white" />
    <circle cx="45" cy="52" r="1" fill="white" />
    <circle cx="20" cy="50" r="1.4" fill="white" />
  </g>
  
  <!-- Borda estilo carimbo -->
  <path d="M32 7 C16 7 7 16 7 30 C7 37 10 44 16 49 C21 53 26 57 32 57 C42 57 49 52 54 44 C59 36 59 27 55 20 C51 13 44 7 32 7 Z" 
        fill="none" stroke="#E52D1E" stroke-width="0.8" stroke-dasharray="2,1" opacity="0.5"/>
  
  <!-- Letra M em Futura (aproximação com SVG) com textura de carimbo -->
  <path d="M19 22v20h4V27l7 11 7-11v15h4V22h-5l-6.5 10-6.5-10h-4z" fill="white" stroke="#E52D1E" stroke-width="0.3" opacity="0.95"/>
</svg>